<?xml version="1.0" standalone="no"?>
<!DOCTYPE svg PUBLIC "-//W3C//DTD SVG 20010904//EN"
 "http://www.w3.org/TR/2001/REC-SVG-20010904/DTD/svg10.dtd">
<svg version="1.0" xmlns="http://www.w3.org/2000/svg"
 width="960.000000pt" height="960.000000pt" viewBox="0 0 960.000000 960.000000"
 preserveAspectRatio="xMidYMid meet">
<metadata>
Created by potrace 1.11, written by Peter Selinger 2001-2013
</metadata>
<g transform="translate(0.000000,960.000000) scale(0.100000,-0.100000)"
fill="#000000" stroke="none">
<path d="M4828 8587 c-40 -19 -78 -57 -94 -96 -23 -56 -17 -134 21 -273 6 -21
8 -29 30 -123 48 -200 58 -269 58 -405 0 -52 -3 -117 -6 -145 -14 -97 -19
-130 -22 -145 -2 -8 -4 -21 -4 -27 -1 -20 -21 -16 -122 28 -52 23 -112 48
-134 56 -103 38 -242 85 -264 89 -13 3 -32 9 -43 15 -10 5 -18 7 -18 5 0 -3
-18 1 -40 9 -22 8 -40 12 -40 10 0 -2 -15 1 -32 6 -69 19 -129 24 -308 23
-167 0 -260 -5 -330 -19 -13 -3 -40 -7 -60 -10 -20 -3 -47 -8 -60 -10 -14 -3
-36 -7 -50 -10 -21 -4 -76 -18 -160 -39 -29 -8 -195 -64 -225 -77 -16 -7 -32
-13 -35 -14 -89 -30 -328 -162 -338 -187 -2 -4 -8 -8 -14 -8 -28 0 -229 -196
-338 -330 -25 -30 -51 -61 -57 -68 -47 -50 -223 -304 -223 -320 0 -6 -4 -12
-8 -14 -9 -3 -101 -161 -150 -256 -18 -34 -36 -70 -42 -80 -53 -95 -230 -542
-235 -592 0 -3 -4 -11 -8 -17 -5 -7 -6 -13 -2 -13 3 0 -1 -15 -8 -32 -11 -26
-36 -113 -42 -148 -1 -3 -4 -14 -8 -25 -3 -11 -8 -31 -11 -45 -3 -14 -8 -36
-11 -50 -6 -25 -21 -103 -30 -150 -3 -14 -7 -36 -10 -50 -3 -14 -7 -43 -10
-65 -3 -22 -7 -51 -10 -64 -2 -13 -7 -49 -10 -80 -4 -31 -8 -74 -11 -96 -3
-22 -7 -134 -9 -250 -4 -229 7 -342 50 -545 20 -96 21 -97 40 -165 9 -33 20
-74 24 -90 4 -17 14 -42 21 -55 7 -14 12 -25 11 -25 -4 0 11 -59 18 -70 3 -5
6 -14 7 -20 2 -13 80 -207 104 -260 10 -22 19 -43 19 -47 2 -11 155 -312 198
-388 20 -36 40 -67 45 -68 4 -2 8 -9 8 -16 0 -10 201 -325 230 -358 6 -7 42
-56 82 -108 39 -52 85 -111 102 -131 17 -20 44 -51 60 -70 92 -110 235 -258
331 -344 17 -15 44 -39 60 -54 93 -84 322 -251 345 -251 5 0 10 -4 10 -8 0
-14 239 -130 333 -161 48 -17 87 -28 87 -26 0 3 12 0 26 -6 48 -18 127 -24
324 -23 179 0 318 7 380 19 126 25 575 25 755 1 17 -3 53 -7 80 -11 28 -4 61
-9 75 -11 14 -2 48 -6 76 -9 28 -3 62 -8 75 -10 37 -8 168 -18 224 -19 43 0
89 5 170 18 59 10 212 50 223 58 6 6 12 8 12 5 0 -6 208 63 265 88 17 7 55 23
85 35 54 21 305 144 365 178 463 263 821 579 1104 977 43 61 87 126 97 145 10
19 22 37 25 40 10 9 149 265 149 275 0 3 11 31 26 63 26 56 56 133 95 242 22
61 86 290 93 333 3 15 7 35 10 45 3 9 7 33 10 52 3 19 8 46 11 60 5 26 10 58
20 125 3 22 7 54 10 72 19 127 27 584 12 738 -14 148 -30 270 -43 326 -2 11
-6 27 -8 38 -2 10 -7 34 -10 52 -3 19 -10 49 -15 67 -5 17 -8 32 -6 32 2 0 -2
18 -10 40 -8 22 -15 44 -15 48 -4 44 -76 270 -130 407 -89 227 -174 398 -305
614 -29 47 -108 167 -114 171 -4 3 -14 17 -23 32 -41 64 -167 211 -266 312
-259 263 -570 473 -862 581 -19 7 -44 16 -55 21 -11 4 -22 8 -25 9 -3 1 -12 5
-20 8 -81 34 -250 88 -323 103 -122 26 -264 20 -373 -15 -68 -21 -207 -89
-212 -102 -2 -5 -8 -9 -13 -9 -4 0 -39 -14 -76 -31 -38 -17 -81 -37 -98 -44
-16 -7 -52 -23 -80 -35 -67 -30 -127 -51 -132 -46 -4 3 -14 57 -15 76 -1 18 3
30 10 28 10 -3 85 23 100 35 6 5 12 6 12 2 0 -4 6 -3 13 3 6 6 17 11 22 13 52
11 332 150 433 214 251 159 491 394 670 653 53 78 69 108 60 114 -15 10 -225
8 -283 -3 -22 -4 -58 -10 -80 -13 -41 -7 -194 -50 -230 -65 -97 -42 -205 -96
-205 -103 0 -4 -6 -8 -13 -8 -23 0 -168 -113 -244 -191 -73 -74 -151 -171
-175 -219 -7 -14 -16 -27 -20 -30 -4 -3 -28 -46 -53 -95 l-46 -90 5 180 c3 99
7 191 10 205 2 14 7 45 10 70 7 48 22 102 36 135 38 85 80 208 80 233 0 27
-67 97 -121 126 -61 34 -173 45 -221 23z"/>
</g>
</svg>
